HIERARCHY
ROOT ui
{
	 OFFSET 0 0 0
	 CHANNELS 3 XPosition YPosition Z Position
	 EndSite
	 {
	 OFFSET 0 -1 0
	 }
}
ROOT li
{
	 OFFSET 0 0 0
	 CHANNELS 3 XPosition YPosition Z Position
	 EndSite
	 {
	 OFFSET 0 -1 0
	 }
}
ROOT ul
{
	 OFFSET 0 0 0
	 CHANNELS 3 XPosition YPosition Z Position
	 EndSite
	 {
	 OFFSET 0 -1 0
	 }
}
ROOT ll
{
	 OFFSET 0 0 0
	 CHANNELS 3 XPosition YPosition Z Position
	 EndSite
	 {
	 OFFSET 0 -1 0
	 }
}
ROOT tt
{
	 OFFSET 0 0 0
	 CHANNELS 3 XPosition YPosition Z Position
	 EndSite
	 {
	 OFFSET 0 -1 0
	 }
}
ROOT tb
{
	 OFFSET 0 0 0
	 CHANNELS 3 XPosition YPosition Z Position
	 EndSite
	 {
	 OFFSET 0 -1 0
	 }
}
ROOT td
{
	 OFFSET 0 0 0
	 CHANNELS 3 XPosition YPosition Z Position
	 EndSite
	 {
	 OFFSET 0 -1 0
	 }
}
ROOT v
{
	 OFFSET 0 0 0
	 CHANNELS 3 XPosition YPosition Z Position
	 EndSite
	 {
	 OFFSET 0 -1 0
	 }
}
ROOT bn
{
	 OFFSET 0 0 0
	 CHANNELS 3 XPosition YPosition Z Position
	 EndSite
	 {
	 OFFSET 0 -1 0
	 }
}
MOTION
Frames: 24
Frame Time: 0.002
-5.271900296211243E-4	-3.855839967727661E-4	0		0.524019775390625	-2.456958740234375	0		-1.04230517578125	0.026421903610229492	0		-0.70794091796875	-2.5431845703125	0		1.398109375	-0.8139369506835937	0		3.2099765625	-0.25770098876953124	0		4.7215859375	-0.1103725357055664	0		5.7355107421875	0.3591355895996094	0		-0.2524981689453125	5.88454443359375	0		
-6.860129833221436E-4	-4.991509914398193E-4	0		0.521931396484375	-2.459031982421875	0		-0.9664793701171875	0.024484285354614256	0		-0.6641318969726563	-2.555778564453125	0		1.3570035400390625	-0.8115750732421875	0		3.218023193359375	-0.23877932739257812	0		4.71144189453125	-0.10920786285400391	0		5.73533837890625	0.35923452758789065	0		-0.252875	5.884421875	0		
-8.542720079421997E-4	-6.176900267601014E-4	0		0.494867919921875	-2.45685498046875	0		-1.0426341552734375	0.026116132736206055	0		-0.704232666015625	-2.557507080078125	0		1.3978397216796874	-0.8140701904296875	0		3.203750244140625	-0.2496446990966797	0		4.702298828125	-0.10707516479492188	0		5.721076171875	0.3514537353515625	0		-0.25423101806640624	5.88530517578125	0		
-0.0010301979780197143	-7.394829988479614E-4	0		0.5306627807617188	-2.467330810546875	0		-1.0428109130859375	0.025962356567382813	0		-0.6893719482421875	-2.561804443359375	0		1.3597421875	-0.8087589721679688	0		3.198654296875	-0.24261712646484376	0		4.70010546875	-0.10903192138671874	0		5.72187939453125	0.35049737548828125	0		-0.2535979614257812	5.8841650390625	0		
0.005859413146972656	0.00606516695022583	0		0.48469650268554687	-2.452968505859375	0		-1.02988134765625	0.03667593002319336	0		-0.684420166015625	-2.555998779296875	0		1.3646546630859375	-0.8018954467773437	0		3.21830419921875	-0.25985403442382815	0		4.7048447265625	-0.11707328033447266	0		5.71268798828125	0.35062786865234374	0		-0.27190390014648436	5.88821875	0		
0.002632627010345459	0.001972913980484009	0		0.5275829467773437	-2.4525185546875	0		-1.043179931640625	0.02565901756286621	0		-0.6885796508789063	-2.560098876953125	0		1.3594185791015625	-0.8089314575195312	0		3.203524169921875	-0.22074160766601564	0		4.7038046875	-0.10306354522705079	0		5.716564453125	0.35761334228515623	0		-0.10496704864501953	5.914380859375	0		
-0.001586866021156311	-0.0011085280179977417	0		0.49643521118164063	-2.45431201171875	0		-0.9673837890625	0.023736459732055664	0		-0.6636461181640625	-2.5544931640625	0		1.400226806640625	-0.8114383544921875	0		3.192096435546875	-0.24467218017578124	0		4.7156279296875	-0.10219306945800781	0		5.7072041015625	0.3417235412597656	0		-0.2886788635253906	5.878123046875	0		
-0.001778535008430481	-0.0012297749519348145	0		0.5212467651367187	-2.459676025390625	0		-1.0435618896484375	0.025366268157958984	0		-0.7127166137695312	-2.54813134765625	0		1.359075927734375	-0.809111083984375	0		3.18598193359375	-0.23766070556640626	0		4.70138818359375	-0.10706524658203125	0		5.71191259765625	0.3326807250976562	0		-0.27003466796875	5.87480224609375	0		
-0.0019722479581832887	-0.0013494340181350708	0		0.5050631103515625	-2.463622314453125	0		-1.0437562255859374	0.02522549057006836	0		-0.6889817504882813	-2.560508544921875	0		1.3588985595703125	-0.8092031860351563	0		3.201792236328125	-0.23787812805175781	0		4.6971259765625	-0.11404859924316406	0		5.702712890625	0.33276824951171874	0		-0.30440664672851564	5.8690224609375	0		
0.0018630789518356322	0.0014924010038375854	0		0.5270224609375	-2.452954345703125	0		-1.0308406982421876	0.0359571533203125	0		-0.7329970092773438	-2.547193115234375	0		1.363788818359375	-0.802347412109375	0		3.184815185546875	-0.21676731872558594	0		4.69406494140625	-0.10105255889892578	0		5.71150146484375	0.3316613464355469	0		-0.25555674743652346	5.88340234375	0		
0.0016680959463119508	0.0013778430223464965	0		0.5268656005859375	-2.453060791015625	0		-0.96412060546875	0.02714919662475586	0		-0.6622066650390624	-2.553037109375	0		1.4025435791015626	-0.8088350219726562	0		3.18245166015625	-0.23381138610839844	0		4.70487109375	-0.10120557403564454	0		5.69739306640625	0.34077658081054685	0		-0.255843017578125	5.88328369140625	0		
-0.0025560739040374754	-0.0016927000284194947	0		0.5226541137695313	-2.4581240234375	0		-1.04434130859375	0.024833517074584963	0		-0.6894459228515625	-2.5608837890625	0		1.346474365234375	-0.7973621826171875	0		3.20239111328125	-0.22108258056640626	0		4.68961865234375	-0.10710179901123047	0		5.70619384765625	0.34065087890625	0		-0.13700074768066406	5.89396630859375	0		
-0.0027482430934906007	-0.001799873948097229	0		0.522489501953125	-2.458225341796875	0		-0.9685476684570312	0.022947751998901367	0		-0.6764990234375	-2.55013037109375	0		1.388268798828125	-0.7998779907226562	0		3.17714208984375	-0.22690119934082031	0		4.6814482421875	-0.1050757064819336	0		5.68799853515625	0.34078939819335935	0		-0.30453311157226565	5.86754443359375	0		
-0.002937285900115967	-0.001902340054512024	0		0.5042620849609375	-2.4641416015625	0		-1.0447230224609374	0.024603189468383788	0		-0.6897763061523438	-2.561107177734375	0		1.3550782470703124	-0.8006356201171875	0		3.17202587890625	-0.2199261474609375	0		4.68617919921875	-0.11318771362304687	0		5.6927158203125	0.3316861267089844	0		-0.30477285766601564	5.867439453125	0		
0.003948767900466919	0.0049300217628479	0		0.537140625	-2.459568115234375	0		-1.031797119140625	0.035368976593017576	0		-0.6729568481445313	-2.562379150390625	0		1.365908203125	-0.7998355712890625	0		3.18763037109375	-0.2411650390625	0		4.6799150390625	-0.12119698333740235	0		5.688439453125	0.3226624755859375	0		-0.2889104919433594	5.87517919921875	0		
7.314000129699707E-4	8.704599738121033E-4	0		0.5010825805664062	-2.448294677734375	0		-1.031974365234375	0.0352762451171875	0		-0.6860762329101563	-2.557340087890625	0		1.351824462890625	-0.7907813720703125	0		3.193765869140625	-0.21030862426757813	0		4.685818359375	-0.11333545684814453	0		5.6972607421875	0.3224968566894531	0		-0.25504450988769534	5.88074560546875	0		
5.629389882087708E-4	7.878149747848511E-4	0		0.5238319702148437	-2.456608642578125	0		-0.9692669067382812	0.022559665679931642	0		-0.6882651977539063	-2.55940234375	0		1.345585693359375	-0.7978034057617187	0		3.160427734375	-0.22705844116210938	0		4.68158984375	-0.11937822723388672	0		5.68318359375	0.33155389404296876	0		-0.27130191040039064	5.87182470703125	0		
-0.0036252310276031494	-0.002246764898300171	0		0.4946790466308594	-2.455392822265625	0		-1.0454111328125	0.024252941131591797	0		-0.690449951171875	-2.561455322265625	0		1.3454254150390625	-0.7978818969726562	0		3.171339111328125	-0.22025282287597656	0		4.6883603515625	-0.1265354995727539	0		5.67894580078125	0.32350494384765627	0		-0.2865449523925781	5.86190185546875	0		
2.586059868335724E-4	6.455140113830566E-4	0		0.5235104370117187	-2.456754638671875	0		-1.041527099609375	0.027149835586547853	0		-0.68858740234375	-2.559539794921875	0		1.3452757568359375	-0.7979551391601563	0		3.17612109375	-0.22738417053222656	0		4.67822412109375	-0.12552275848388672	0		5.678791015625	0.32241259765625	0		-0.3207239685058594	5.85617919921875	0		
1.2626899778842926E-4	5.863109827041626E-4	0		0.4734682312011719	-2.446312744140625	0		-1.0325791015625	0.03500506591796875	0		-0.6867135009765625	-2.55761572265625	0		1.34817919921875	-0.7940520629882812	0		3.1911884765625	-0.20761285400390625	0		4.67809130859375	-0.12560721588134766	0		5.67866064453125	0.32232272338867185	0		-0.29161431884765626	5.876828125	0		
9.879999794065952E-6	5.354610085487366E-4	0		0.5252661743164062	-2.453890380859375	0		-0.957709228515625	0.033202568054199216	0		-0.6868428344726563	-2.5576630859375	0		1.3450186767578125	-0.7980792236328125	0		3.163921142578125	-0.22240655517578126	0		4.67797412109375	-0.12568167114257814	0		5.6785458984375	0.32224322509765624	0		-0.2717525329589844	5.8715771484375	0		
-8.844099938869477E-5	4.931620061397553E-4	0		0.5251602783203125	-2.453934326171875	0		-1.0459039306640625	0.024052133560180666	0		-0.6529912109375	-2.562046142578125	0		1.3418876953125	-0.8010952758789063	0		3.204880615234375	-0.21687289428710937	0		4.6648359375	-0.1296070556640625	0		5.6784482421875	0.32218328857421874	0		-0.13860720825195313	5.89319189453125	0		
-0.004196592807769775	-0.0024999499320983885	0		0.5210324096679687	-2.45892724609375	0		-0.9699959716796875	0.02225110626220703	0		-0.6910668334960938	-2.5616962890625	0		1.3358707275390624	-0.795068359375	0		3.163743896484375	-0.22249168395996094	0		4.6737373046875	-0.13173052978515626	0		5.6783701171875	0.3221507873535156	0		-0.13868646240234375	5.893158203125	0		
-2.2187900543212892E-4	4.3469300866127015E-4	0		0.4710906677246094	-2.448446044921875	0		-1.03696728515625	0.030897954940795898	0		-0.6781727905273438	-2.56785498046875	0		1.3417576904296875	-0.80114794921875	0		3.17070947265625	-0.22057415771484376	0		4.6696220703125	-0.13769534301757813	0		5.67422314453125	0.3131902770996094	0		-0.30604025268554685	5.8668193359375	0		
